<svg xmlns="http://www.w3.org/2000/svg" version="1.1" xmlns:xlink="http://www.w3.org/1999/xlink" xmlns:svgjs="http://svgjs.dev/svgjs" width="1440" height="800" preserveAspectRatio="none" viewBox="0 0 1440 800"><g mask="url(&quot;#SvgjsMask1000&quot;)" fill="none"><rect width="1440" height="800" x="0" y="0" fill="rgba(0, 27, 36, 1)"></rect><path d="M65 800L865 0L1523.5 0L723.5 800z" fill="url(&quot;#SvgjsLinearGradient1001&quot;)"></path><path d="M526.2 800L1326.2 0L1666.7 0L866.7 800z" fill="url(&quot;#SvgjsLinearGradient1001&quot;)"></path><path d="M1351 800L551 0L2 0L802 800z" fill="url(&quot;#SvgjsLinearGradient1002&quot;)"></path><path d="M901.8 800L101.79999999999995 0L-538.7 0L261.29999999999995 800z" fill="url(&quot;#SvgjsLinearGradient1002&quot;)"></path><path d="M858.97581998878 800L1440 218.97581998878002L1440 800z" fill="url(&quot;#SvgjsLinearGradient1001&quot;)"></path><path d="M0 800L581.02418001122 800L 0 218.97581998878002z" fill="url(&quot;#SvgjsLinearGradient1002&quot;)"></path></g><defs><mask id="SvgjsMask1000"><rect width="1440" height="800" fill="#ffffff"></rect></mask><linearGradient x1="0%" y1="100%" x2="100%" y2="0%" id="SvgjsLinearGradient1001"><stop stop-color="rgba(15, 70, 185, 0.2)" offset="0"></stop><stop stop-opacity="0" stop-color="rgba(15, 70, 185, 0.2)" offset="0.66"></stop></linearGradient><linearGradient x1="100%" y1="100%" x2="0%" y2="0%" id="SvgjsLinearGradient1002"><stop stop-color="rgba(15, 70, 185, 0.2)" offset="0"></stop><stop stop-opacity="0" stop-color="rgba(15, 70, 185, 0.2)" offset="0.66"></stop></linearGradient></defs></svg>